<mxfile host="Electron" agent="Mozilla/5.0 (Macintosh; Intel Mac OS X 10_15_7) AppleWebKit/537.36 (KHTML, like Gecko) draw.io/28.2.8 Chrome/140.0.7339.240 Electron/38.4.0 Safari/537.36" version="28.2.8">
  <diagram name="Page-1" id="q75pIl_5ZlXQvvBMusuo">
    <mxGraphModel dx="1057" dy="-13" grid="1" gridSize="10" guides="1" tooltips="1" connect="1" arrows="1" fold="1" page="0" pageScale="1" pageWidth="850" pageHeight="1100" background="none" math="0" shadow="0">
      <root>
        <mxCell id="0" />
        <mxCell id="1" parent="0" />
        <mxCell id="zZJy4vhbuiZ3dux3Pc1r-3" value="Customer" style="shape=umlLifeline;perimeter=lifelinePerimeter;whiteSpace=wrap;html=1;container=1;dropTarget=0;collapsible=0;recursiveResize=0;outlineConnect=0;portConstraint=eastwest;newEdgeStyle={&quot;curved&quot;:0,&quot;rounded&quot;:0};" vertex="1" parent="1">
          <mxGeometry x="280" y="960" width="100" height="640" as="geometry" />
        </mxCell>
        <mxCell id="zZJy4vhbuiZ3dux3Pc1r-9" value="" style="html=1;points=[[0,0,0,0,5],[0,1,0,0,-5],[1,0,0,0,5],[1,1,0,0,-5]];perimeter=orthogonalPerimeter;outlineConnect=0;targetShapes=umlLifeline;portConstraint=eastwest;newEdgeStyle={&quot;curved&quot;:0,&quot;rounded&quot;:0};" vertex="1" parent="zZJy4vhbuiZ3dux3Pc1r-3">
          <mxGeometry x="45" y="100" width="10" height="300" as="geometry" />
        </mxCell>
        <mxCell id="zZJy4vhbuiZ3dux3Pc1r-4" value="Website" style="shape=umlLifeline;perimeter=lifelinePerimeter;whiteSpace=wrap;html=1;container=1;dropTarget=0;collapsible=0;recursiveResize=0;outlineConnect=0;portConstraint=eastwest;newEdgeStyle={&quot;curved&quot;:0,&quot;rounded&quot;:0};" vertex="1" parent="1">
          <mxGeometry x="600" y="960" width="100" height="640" as="geometry" />
        </mxCell>
        <mxCell id="zZJy4vhbuiZ3dux3Pc1r-6" value="" style="html=1;points=[[0,0,0,0,5],[0,1,0,0,-5],[1,0,0,0,5],[1,1,0,0,-5]];perimeter=orthogonalPerimeter;outlineConnect=0;targetShapes=umlLifeline;portConstraint=eastwest;newEdgeStyle={&quot;curved&quot;:0,&quot;rounded&quot;:0};" vertex="1" parent="zZJy4vhbuiZ3dux3Pc1r-4">
          <mxGeometry x="45" y="110" width="10" height="290" as="geometry" />
        </mxCell>
        <mxCell id="zZJy4vhbuiZ3dux3Pc1r-12" value="" style="html=1;points=[[0,0,0,0,5],[0,1,0,0,-5],[1,0,0,0,5],[1,1,0,0,-5]];perimeter=orthogonalPerimeter;outlineConnect=0;targetShapes=umlLifeline;portConstraint=eastwest;newEdgeStyle={&quot;curved&quot;:0,&quot;rounded&quot;:0};" vertex="1" parent="zZJy4vhbuiZ3dux3Pc1r-4">
          <mxGeometry x="55" y="190" width="10" height="40" as="geometry" />
        </mxCell>
        <mxCell id="zZJy4vhbuiZ3dux3Pc1r-13" value="self call" style="html=1;align=left;spacingLeft=2;endArrow=block;rounded=0;edgeStyle=orthogonalEdgeStyle;curved=0;rounded=0;" edge="1" target="zZJy4vhbuiZ3dux3Pc1r-12" parent="zZJy4vhbuiZ3dux3Pc1r-4" source="zZJy4vhbuiZ3dux3Pc1r-6">
          <mxGeometry relative="1" as="geometry">
            <mxPoint x="90" y="150" as="sourcePoint" />
            <Array as="points">
              <mxPoint x="90" y="180" />
              <mxPoint x="90" y="210" />
            </Array>
          </mxGeometry>
        </mxCell>
        <mxCell id="zZJy4vhbuiZ3dux3Pc1r-5" value="Payment" style="shape=umlLifeline;perimeter=lifelinePerimeter;whiteSpace=wrap;html=1;container=1;dropTarget=0;collapsible=0;recursiveResize=0;outlineConnect=0;portConstraint=eastwest;newEdgeStyle={&quot;curved&quot;:0,&quot;rounded&quot;:0};" vertex="1" parent="1">
          <mxGeometry x="920" y="960" width="100" height="640" as="geometry" />
        </mxCell>
        <mxCell id="zZJy4vhbuiZ3dux3Pc1r-7" value="1. customer create a order" style="html=1;verticalAlign=bottom;endArrow=block;curved=0;rounded=0;entryX=0;entryY=0;entryDx=0;entryDy=5;" edge="1" target="zZJy4vhbuiZ3dux3Pc1r-6" parent="1" source="zZJy4vhbuiZ3dux3Pc1r-9">
          <mxGeometry relative="1" as="geometry">
            <mxPoint x="400" y="1070" as="sourcePoint" />
          </mxGeometry>
        </mxCell>
        <mxCell id="zZJy4vhbuiZ3dux3Pc1r-15" value="alt" style="shape=umlFrame;whiteSpace=wrap;html=1;pointerEvents=0;" vertex="1" parent="1">
          <mxGeometry x="270" y="1200" width="430" height="200" as="geometry" />
        </mxCell>
        <mxCell id="zZJy4vhbuiZ3dux3Pc1r-16" value="" style="endArrow=none;dashed=1;html=1;dashPattern=1 3;strokeWidth=2;rounded=0;entryX=0.999;entryY=0.498;entryDx=0;entryDy=0;entryPerimeter=0;exitX=-0.001;exitY=0.508;exitDx=0;exitDy=0;exitPerimeter=0;" edge="1" parent="1" source="zZJy4vhbuiZ3dux3Pc1r-15" target="zZJy4vhbuiZ3dux3Pc1r-15">
          <mxGeometry width="50" height="50" relative="1" as="geometry">
            <mxPoint x="310" y="1370" as="sourcePoint" />
            <mxPoint x="790" y="1200" as="targetPoint" />
          </mxGeometry>
        </mxCell>
        <mxCell id="zZJy4vhbuiZ3dux3Pc1r-17" value="2.1 success" style="html=1;verticalAlign=bottom;endArrow=open;dashed=1;endSize=8;curved=0;rounded=0;" edge="1" parent="1">
          <mxGeometry relative="1" as="geometry">
            <mxPoint x="640" y="1239.9999999999998" as="sourcePoint" />
            <mxPoint x="330" y="1239.9999999999998" as="targetPoint" />
          </mxGeometry>
        </mxCell>
        <mxCell id="zZJy4vhbuiZ3dux3Pc1r-18" value="2.2 fail" style="html=1;verticalAlign=bottom;endArrow=open;dashed=1;endSize=8;curved=0;rounded=0;" edge="1" parent="1">
          <mxGeometry relative="1" as="geometry">
            <mxPoint x="640" y="1340" as="sourcePoint" />
            <mxPoint x="330" y="1340" as="targetPoint" />
            <mxPoint as="offset" />
          </mxGeometry>
        </mxCell>
        <mxCell id="zZJy4vhbuiZ3dux3Pc1r-21" value="" style="endArrow=block;endFill=1;html=1;edgeStyle=orthogonalEdgeStyle;align=left;verticalAlign=top;rounded=0;" edge="1" parent="1">
          <mxGeometry x="-1" relative="1" as="geometry">
            <mxPoint x="330" y="1264.58" as="sourcePoint" />
            <mxPoint x="960" y="1265" as="targetPoint" />
          </mxGeometry>
        </mxCell>
        <mxCell id="zZJy4vhbuiZ3dux3Pc1r-22" value="&lt;div&gt;&lt;br&gt;&lt;/div&gt;&lt;div&gt;&lt;br&gt;&lt;/div&gt;" style="edgeLabel;resizable=0;html=1;align=left;verticalAlign=bottom;" connectable="0" vertex="1" parent="zZJy4vhbuiZ3dux3Pc1r-21">
          <mxGeometry x="-1" relative="1" as="geometry" />
        </mxCell>
        <mxCell id="zZJy4vhbuiZ3dux3Pc1r-24" value="3. payment" style="text;html=1;whiteSpace=wrap;strokeColor=none;fillColor=none;align=center;verticalAlign=middle;rounded=0;" vertex="1" parent="1">
          <mxGeometry x="550" y="1240" width="80" height="30" as="geometry" />
        </mxCell>
        <mxCell id="zZJy4vhbuiZ3dux3Pc1r-27" value="return" style="html=1;verticalAlign=bottom;endArrow=open;dashed=1;endSize=8;curved=0;rounded=0;" edge="1" parent="1">
          <mxGeometry relative="1" as="geometry">
            <mxPoint x="964.75" y="1280" as="sourcePoint" />
            <mxPoint x="335.25" y="1280" as="targetPoint" />
          </mxGeometry>
        </mxCell>
        <mxCell id="zZJy4vhbuiZ3dux3Pc1r-29" value="4, return bill" style="text;html=1;whiteSpace=wrap;strokeColor=none;fillColor=none;align=center;verticalAlign=middle;rounded=0;" vertex="1" parent="1">
          <mxGeometry x="530" y="1260" width="120" height="30" as="geometry" />
        </mxCell>
      </root>
    </mxGraphModel>
  </diagram>
</mxfile>
